<?xml version="1.0" encoding="UTF-8" standalone="no"?>
<!-- Created with Inkscape (http://www.inkscape.org/) -->

<svg
   width="67.73333mm"
   height="67.73333mm"
   viewBox="0 0 67.73333 67.73333"
   version="1.1"
   id="svg8"
   inkscape:version="1.3.2 (1:1.3.2+202311252150+091e20ef0f)"
   sodipodi:docname="favicon.svg"
   inkscape:export-filename="favicon.png"
   inkscape:export-xdpi="96"
   inkscape:export-ydpi="96"
   xmlns:inkscape="http://www.inkscape.org/namespaces/inkscape"
   xmlns:sodipodi="http://sodipodi.sourceforge.net/DTD/sodipodi-0.dtd"
   xmlns="http://www.w3.org/2000/svg"
   xmlns:svg="http://www.w3.org/2000/svg"
   xmlns:rdf="http://www.w3.org/1999/02/22-rdf-syntax-ns#"
   xmlns:cc="http://creativecommons.org/ns#"
   xmlns:dc="http://purl.org/dc/elements/1.1/">
  <defs
     id="defs2" />
  <sodipodi:namedview
     id="base"
     pagecolor="#d2d2d2"
     bordercolor="#666666"
     borderopacity="1.0"
     inkscape:pageopacity="0"
     inkscape:pageshadow="2"
     inkscape:zoom="0.39375"
     inkscape:cx="-81.051971"
     inkscape:cy="558.86667"
     inkscape:document-units="mm"
     inkscape:current-layer="layer1"
     showgrid="false"
     inkscape:window-width="1366"
     inkscape:window-height="741"
     inkscape:window-x="0"
     inkscape:window-y="0"
     inkscape:window-maximized="1"
     inkscape:showpageshadow="2"
     inkscape:pagecheckerboard="0"
     inkscape:deskcolor="#d1d1d1"
     showguides="true" />
  <metadata
     id="metadata5">
    <rdf:RDF>
      <cc:Work
         rdf:about="">
        <dc:format>image/svg+xml</dc:format>
        <dc:type
           rdf:resource="http://purl.org/dc/dcmitype/StillImage" />
        <dc:title />
      </cc:Work>
    </rdf:RDF>
  </metadata>
  <g
     inkscape:label="Capa 1"
     inkscape:groupmode="layer"
     id="layer1"
     transform="translate(168.3741,-49.73748)">
    <rect
       style="fill:#34c242;stroke-width:0.158564;stroke-linecap:round;stroke-linejoin:round;-inkscape-stroke:none;paint-order:fill markers stroke;fill-opacity:1"
       id="rect1"
       width="67.73333"
       height="67.73333"
       x="-168.3741"
       y="49.73748"
       ry="10.261853" />
    <g
       id="g3"
       transform="translate(-0.39484402,0.39815487)">
      <path
         style="font-weight:bold;font-size:33.8036px;line-height:80%;font-family:'Fira Code';-inkscape-font-specification:'Fira Code Bold';letter-spacing:0px;word-spacing:0px;white-space:pre;stroke-width:2.47715;stroke-linecap:round;stroke-linejoin:round;paint-order:fill markers stroke"
         d="m -124.60538,68.700191 q 1.07555,-1.419722 2.58131,-2.258648 1.52728,-0.838927 3.26966,-0.838927 2.947,0 4.79693,1.484254 1.87146,1.484256 2.75341,4.194633 0.88196,2.710377 0.88196,6.431769 0,3.527794 -1.05405,6.302705 -1.03253,2.753399 -3.07606,4.345209 -2.04354,1.570298 -5.01204,1.570298 -3.59234,0 -5.65739,-2.796421 l -0.25813,2.06505 h -6.02306 V 57.277884 l 6.79746,-0.709861 z m 3.35571,16.283778 q 1.80691,0 2.86094,-1.656342 1.05404,-1.677853 1.05404,-5.52831 0,-2.839445 -0.45172,-4.388232 -0.43022,-1.570298 -1.24764,-2.172604 -0.7959,-0.623817 -1.87145,-0.623817 -1.14008,0 -2.04353,0.709861 -0.90347,0.709861 -1.65635,1.935984 v 9.6369 q 0.64532,1.011013 1.44122,1.548786 0.79592,0.537774 1.91449,0.537774 z"
         id="path3" />
      <path
         style="font-weight:bold;font-size:33.8036px;line-height:80%;font-family:'Fira Code';-inkscape-font-specification:'Fira Code Bold';letter-spacing:0px;word-spacing:0px;white-space:pre;stroke-width:2.47715;stroke-linecap:round;stroke-linejoin:round;paint-order:fill markers stroke"
         d="m -142.6951,80.187031 q 0,-1.570299 -0.62381,-2.473759 -0.6023,-0.92497 -1.72087,-1.312166 -1.09705,-0.387197 -2.58131,-0.387197 h -2.90398 v 8.04509 h 2.60283 q 1.03252,0 1.95749,-0.150577 0.94647,-0.150576 1.67785,-0.559284 0.75288,-0.408708 1.16159,-1.16159 0.43021,-0.774394 0.43021,-2.000517 z m 7.27071,0.279642 q 0,2.581312 -0.9895,4.280676 -0.98951,1.699363 -2.71039,2.667355 -1.72086,0.967992 -3.93649,1.376701 -2.19411,0.408708 -4.62486,0.408708 h -9.89503 V 59.385955 h 9.4433 q 2.30168,0 4.34521,0.387196 2.06506,0.365687 3.65686,1.247636 1.59181,0.860437 2.49527,2.344692 0.92497,1.462744 0.92497,3.635348 0,1.785408 -0.75288,3.097575 -0.75289,1.290655 -2.00052,2.129582 -1.24763,0.817415 -2.71038,1.183101 1.59181,0.258131 3.1406,1.011015 1.5703,0.731371 2.58132,2.194114 1.03252,1.462745 1.03252,3.850459 z m -8.38927,-12.755985 q 0,-1.763897 -1.11856,-2.538292 -1.09706,-0.795903 -3.42024,-0.795903 h -2.17261 v 6.90501 h 2.38771 q 2.28016,0 3.29119,-0.838925 1.03251,-0.838929 1.03251,-2.73189 z"
         id="text1" />
      <path
         style="font-weight:bold;font-size:22.3498px;line-height:80%;font-family:'Fira Code';-inkscape-font-specification:'Fira Code Bold';letter-spacing:0px;word-spacing:0px;white-space:pre;stroke-width:1.62491;stroke-linecap:round;stroke-linejoin:round;paint-order:fill markers stroke"
         d="m -114.60293,95.084282 q 0,-1.044165 -0.39509,-1.721461 -0.38098,-0.691406 -1.17117,-1.015945 -0.77607,-0.338647 -1.96133,-0.338647 h -1.58037 v 6.391982 h 1.82024 q 1.03006,0 1.76379,-0.352757 0.73375,-0.352759 1.12884,-1.086497 0.39509,-0.733738 0.39509,-1.876675 z m 4.76929,-0.01411 q 0,2.271764 -0.97362,3.753349 -0.97362,1.481579 -2.72329,2.215329 -1.74967,0.71962 -4.06378,0.71962 h -2.11656 v 6.50486 h -4.62817 V 88.706409 h 6.15209 q 3.97912,0 6.16622,1.580359 2.18711,1.580357 2.18711,4.783406 z"
         id="path5" />
      <path
         style="font-weight:bold;font-size:22.3498px;line-height:80%;font-family:'Fira Code';-inkscape-font-specification:'Fira Code Bold';letter-spacing:0px;word-spacing:0px;white-space:pre;stroke-width:1.62491;stroke-linecap:round;stroke-linejoin:round;paint-order:fill markers stroke"
         d="m -142.73662,88.706409 h 4.98095 l 2.94907,6.279101 3.66907,-7.681793 h 4.88218 l -5.84207,10.376867 5.67236,10.582746 h -4.98096 l -3.45703,-7.46437 -3.40058,7.46437 h -4.91041 l 5.55948,-10.385202 z"
         id="path4"
         sodipodi:nodetypes="ccccccccccccc" />
      <path
         style="font-weight:bold;font-size:22.3498px;line-height:80%;font-family:'Fira Code';-inkscape-font-specification:'Fira Code Bold';letter-spacing:0px;word-spacing:0px;white-space:pre;stroke-width:1.62491;stroke-linecap:round;stroke-linejoin:round;paint-order:fill markers stroke"
         d="m -152.95247,92.008229 v 4.698742 h 6.77296 v 3.245381 h -6.77296 v 4.995058 h 8.1699 v 3.31592 h -12.79809 V 88.706409 h 12.78397 l -0.46563,3.30182 z"
         id="text3" />
    </g>
  </g>
</svg>
